<svg xmlns="http://www.w3.org/2000/svg" xmlns:xlink="http://www.w3.org/1999/xlink" width="994" height="945"><defs><filter id="a" width="152.1%" height="155.9%" x="-26.1%" y="-26%" filterUnits="objectBoundingBox"><feMorphology in="SourceAlpha" operator="dilate" radius="36.9" result="shadowSpreadOuter1"/><feOffset dy="13" in="shadowSpreadOuter1" result="shadowOffsetOuter1"/><feGaussianBlur in="shadowOffsetOuter1" result="shadowBlurOuter1" stdDeviation="46"/><feComposite in="shadowBlurOuter1" in2="SourceAlpha" operator="out" result="shadowBlurOuter1"/><feColorMatrix in="shadowBlurOuter1" values="0 0 0 0 0 0 0 0 0 0 0 0 0 0 0 0 0 0 0.0859221345 0"/></filter><path id="b" d="M147.2 49H49.1A49 49 0 0 0 0 98.2V687A49 49 0 0 0 49 736h638a49 49 0 0 0 49-49V98a49 49 0 0 0-49-49H343.4"/></defs><g fill="none" fill-rule="evenodd" stroke-linecap="round" stroke-linejoin="round"><g transform="translate(129 67)"><use xlink:href="#b" fill="#000" filter="url(#a)"/><use xlink:href="#b" fill="#FFF" stroke="#FFF" stroke-width="52.8"/></g><path fill="#F6F6F6" stroke="#F6F6F6" stroke-width="52.8" d="m472.5 410.5-98.2-73.6-98.1 73.6v-319A24.5 24.5 0 0 1 300.7 67H448c13.6 0 24.6 11 24.6 24.5v319Z"/><path stroke="#F6F6F6" stroke-width="52.8" d="M276.2 655.8h343.5M276.2 508.6h441.6M717.8 361.4H570.6"/></g></svg>